HIERARCHY
ROOT joint_Root
{
	OFFSET 0.0 0.0 0.0
	CHANNELS 6 Xposition Yposition Zposition Zrotation Xrotation Yrotation 
	JOINT Hips
	{
		OFFSET 4.5925 91.4895 -427.239
		CHANNELS 6 Xposition Yposition Zposition Zrotation Xrotation Yrotation 
		JOINT Spine
		{
			OFFSET 15.7357 0.0 0.0
			CHANNELS 6 Xposition Yposition Zposition Zrotation Xrotation Yrotation 
			JOINT Chest
			{
				OFFSET 8.98455 -0.406207 0.0
				CHANNELS 6 Xposition Yposition Zposition Zrotation Xrotation Yrotation 
				JOINT Neck
				{
					OFFSET 16.3773 0.0 0.0
					CHANNELS 6 Xposition Yposition Zposition Zrotation Xrotation Yrotation 
					JOINT Head
					{
						OFFSET 6.45672 0.0 0.0
						CHANNELS 6 Xposition Yposition Zposition Zrotation Xrotation Yrotation 
						End Site
						{
							OFFSET 0.0 0.0 0.0
						}
					}
				}
				JOINT Shoulder_L
				{
					OFFSET 12.9942 -0.242716 4.98039
					CHANNELS 6 Xposition Yposition Zposition Zrotation Xrotation Yrotation 
					JOINT UpperArm_L
					{
						OFFSET 5.34809 0.0 0.0
						CHANNELS 6 Xposition Yposition Zposition Zrotation Xrotation Yrotation 
						JOINT LowerArm_L
						{
							OFFSET 24.3286 1.87007e-05 0.0
							CHANNELS 6 Xposition Yposition Zposition Zrotation Xrotation Yrotation 
							JOINT Hand_L
							{
								OFFSET 22.2916 0.0 0.0
								CHANNELS 6 Xposition Yposition Zposition Zrotation Xrotation Yrotation 
								End Site
								{
									OFFSET 0.0 0.0 0.0
								}
							}
						}
					}
				}
				JOINT Shoulder_R
				{
					OFFSET 12.9945 -0.242716 -4.98039
					CHANNELS 6 Xposition Yposition Zposition Zrotation Xrotation Yrotation 
					JOINT UpperArm_R
					{
						OFFSET -5.34813 0.0 0.0
						CHANNELS 6 Xposition Yposition Zposition Zrotation Xrotation Yrotation 
						JOINT LowerArm_R
						{
							OFFSET -24.3289 0.000322201 0.0
							CHANNELS 6 Xposition Yposition Zposition Zrotation Xrotation Yrotation 
							JOINT Hand_R
							{
								OFFSET -22.2915 -0.000108084 0.0
								CHANNELS 6 Xposition Yposition Zposition Zrotation Xrotation Yrotation 
								End Site
								{
									OFFSET 0.0 0.0 0.0
								}
							}
						}
					}
				}
			}
		}
		JOINT UpperLeg_L
		{
			OFFSET -2.19248 -6.46944 0.0
			CHANNELS 6 Xposition Yposition Zposition Zrotation Xrotation Yrotation 
			JOINT LowerLeg_L
			{
				OFFSET 39.0811 0.0 -1.23785e-05
				CHANNELS 6 Xposition Yposition Zposition Zrotation Xrotation Yrotation 
				JOINT Foot_L
				{
					OFFSET 40.9854 0.0 -1.26872e-05
					CHANNELS 6 Xposition Yposition Zposition Zrotation Xrotation Yrotation 
					JOINT Toes_L
					{
						OFFSET 11.7543 0.0 0.0
						CHANNELS 6 Xposition Yposition Zposition Zrotation Xrotation Yrotation 
						End Site
						{
							OFFSET 0.0 0.0 0.0
						}
					}
				}
			}
		}
		JOINT UpperLeg_R
		{
			OFFSET -2.19251 6.46944 0.0
			CHANNELS 6 Xposition Yposition Zposition Zrotation Xrotation Yrotation 
			JOINT LowerLeg_R
			{
				OFFSET -39.0811 -0.00228153 -0.0401928
				CHANNELS 6 Xposition Yposition Zposition Zrotation Xrotation Yrotation 
				JOINT Foot_R
				{
					OFFSET -40.9854 0.0 0.0
					CHANNELS 6 Xposition Yposition Zposition Zrotation Xrotation Yrotation 
					JOINT Toes_R
					{
						OFFSET -11.7543 0.0 0.0
						CHANNELS 6 Xposition Yposition Zposition Zrotation Xrotation Yrotation 
						End Site
						{
							OFFSET 0.0 0.0 0.0
						}
					}
				}
			}
		}
	}
}
MOTION
Frames:	4
Frame Time:	0.0333333
0.000000 0.000000 0.000000 0.000000 0.000000 -0.000000 1.887580 91.680500 61.080000 -93.027300 7.477200 179.165000 15.735700 0.000005 -0.000001 124.339000 83.133400 -124.780000 8.984550 -0.406207 -0.000000 3.631960 7.752770 -1.128710 16.377300 -0.000001 -0.000001 1.935200 -4.903960 2.856820 6.456720 -0.000001 -0.000000 -7.965590 -8.342170 -0.725830 12.994200 -0.242716 4.980390 -86.258600 -8.924790 -67.143900 5.348090 -0.000007 -0.000001 -60.238700 54.088100 24.195200 24.328600 0.000019 0.000005 9.166610 -0.618127 -93.825100 22.291600 -0.000001 0.000005 5.339970 5.551390 -8.771670 12.994500 -0.242716 -4.980390 90.836500 -4.597700 -79.677300 -5.348130 -0.000001 -0.000004 -58.017400 31.534400 -59.947200 -24.328900 0.000322 -0.000009 -2.303410 1.677520 -126.049000 -22.291500 -0.000108 -0.000004 21.081100 5.564160 -9.392820 -2.192480 -6.469440 -0.000000 175.798000 -2.646870 -30.348200 39.081100 -0.000007 -0.000012 -0.005583 0.002996 61.822600 40.985400 -0.000006 -0.000013 7.531510 -10.804800 -57.041000 11.754300 -0.000000 0.000003 -0.006736 -0.077390 -19.727100 -2.192510 6.469440 -0.000001 173.543000 17.761300 179.507000 -39.081100 -0.002282 -0.040193 0.017614 -0.030849 24.872300 -40.985400 0.000008 0.000006 7.345550 9.640080 -69.356700 -11.754300 -0.000006 -0.000006 -1.761760 -1.909820 -23.105900
0.000000 0.000000 0.000000 0.000000 0.000000 -0.000000 1.757470 91.907100 56.697300 -92.936300 7.613840 177.795000 15.735700 0.000005 -0.000001 129.815000 82.944200 -130.671000 8.984550 -0.406207 -0.000000 3.176370 9.060500 -1.965700 16.377300 -0.000001 -0.000001 1.728260 -5.200490 2.456730 6.456720 -0.000001 -0.000000 -8.731340 -9.987790 -0.497578 12.994200 -0.242716 4.980390 -84.573100 -12.736400 -66.687900 5.348090 -0.000007 -0.000001 -62.761300 50.587900 29.159400 24.328600 0.000019 0.000005 9.178530 -1.177500 -97.247900 22.291600 -0.000001 0.000005 4.470550 5.532980 -7.926760 12.994500 -0.242716 -4.980390 91.248400 -6.690360 -79.405500 -5.348130 -0.000001 -0.000004 -55.699200 28.335900 -64.167100 -24.328900 0.000322 -0.000009 -2.402970 1.935240 -128.828000 -22.291500 -0.000108 -0.000004 21.055400 5.535870 -8.055940 -2.192480 -6.469440 -0.000000 176.245000 -2.233580 -32.297100 39.081100 -0.000007 -0.000012 0.018528 -0.015726 49.670300 40.985400 -0.000006 -0.000013 6.880330 -9.628780 -59.775600 11.754300 -0.000000 0.000003 -0.006770 -0.077685 -19.739100 -2.192510 6.469440 -0.000001 171.159000 23.260100 -177.552000 -39.081100 -0.002282 -0.040193 0.001837 0.003561 22.564100 -40.985400 0.000008 0.000006 7.865340 15.861000 -66.957100 -11.754300 -0.000006 -0.000006 -0.734522 -0.849228 -25.945800
0.000000 0.000000 0.000000 0.000000 0.000000 -0.000000 1.652040 91.354400 52.257200 -92.270500 8.201190 176.988000 15.735700 0.000005 -0.000001 132.969000 82.628000 -133.948000 8.984550 -0.406207 -0.000000 3.152190 10.078400 -2.237200 16.377300 -0.000001 -0.000001 0.993920 -5.094990 1.788940 6.456720 -0.000001 -0.000000 -9.141290 -10.845500 -0.399813 12.994200 -0.242716 4.980390 -83.351900 -15.091500 -65.883600 5.348090 -0.000007 -0.000001 -63.977300 45.365900 31.162200 24.328600 0.000019 0.000005 11.163700 -1.938380 -99.725900 22.291600 -0.000001 0.000005 3.383880 5.518440 -7.295550 12.994500 -0.242716 -4.980390 91.378200 -7.250880 -79.208000 -5.348130 -0.000001 -0.000004 -52.255400 26.777100 -66.343500 -24.328900 0.000322 -0.000009 -3.697620 3.015990 -129.153000 -22.291500 -0.000108 -0.000004 21.683300 5.535770 -8.051630 -2.192480 -6.469440 -0.000000 177.176000 -4.135780 -32.510900 39.081100 -0.000007 -0.000012 0.025549 -0.035315 35.883400 40.985400 -0.000006 -0.000013 4.504320 -5.299540 -61.438100 11.754300 -0.000000 0.000003 -0.007353 -0.082673 -19.942700 -2.192510 6.469440 -0.000001 170.028000 23.098300 -176.082000 -39.081100 -0.002282 -0.040193 -0.005113 0.019055 23.857000 -40.985400 0.000008 0.000006 7.130300 17.436200 -66.152200 -11.754300 -0.000006 -0.000006 -0.047811 -0.289866 -28.505100
0.000000 0.000000 0.000000 0.000000 0.000000 -0.000000 1.557190 90.219900 47.493000 -90.951900 9.021870 177.642000 15.735700 0.000005 -0.000001 131.848000 81.987200 -132.565000 8.984550 -0.406207 -0.000000 4.300730 10.696500 -1.837500 16.377300 -0.000001 -0.000001 -0.064497 -4.622770 0.935604 6.456720 -0.000001 -0.000000 -9.720450 -10.968300 -0.454964 12.994200 -0.242716 4.980390 -83.149200 -15.138700 -65.295500 5.348090 -0.000007 -0.000001 -63.801400 38.908500 30.782900 24.328600 0.000019 0.000005 11.470000 -2.360640 -101.475000 22.291600 -0.000001 0.000005 3.246280 5.503540 -6.676570 12.994500 -0.242716 -4.980390 91.252900 -6.881210 -79.655100 -5.348130 -0.000001 -0.000004 -49.249400 27.738200 -65.761000 -24.328900 0.000322 -0.000009 -3.861650 2.967610 -127.489000 -22.291500 -0.000108 -0.000004 21.074800 5.533320 -7.942050 -2.192480 -6.469440 -0.000000 178.803000 -6.283330 -31.488800 39.081100 -0.000007 -0.000012 0.009164 -0.019265 25.439400 40.985400 -0.000006 -0.000013 1.274770 -1.147900 -61.753600 11.754300 -0.000000 0.000003 -0.006898 -0.078794 -19.784400 -2.192510 6.469440 -0.000001 169.890000 19.565200 -174.485000 -39.081100 -0.002282 -0.040193 0.003521 -0.000407 27.736300 -40.985400 0.000008 0.000006 6.649500 15.961800 -65.785300 -11.754300 -0.000006 -0.000006 -0.076422 -0.381812 -32.409600
